<?xml version="1.0" encoding="UTF-8" standalone="no"?>
<!-- Created with Inkscape (http://www.inkscape.org/) -->

<svg
   width="111.11282mm"
   height="26.659054mm"
   viewBox="0 0 111.11282 26.659054"
   version="1.1"
   id="svg5"
   inkscape:version="1.1.1 (3bf5ae0d25, 2021-09-20)"
   sodipodi:docname="logo.svg"
   xmlns:inkscape="http://www.inkscape.org/namespaces/inkscape"
   xmlns:sodipodi="http://sodipodi.sourceforge.net/DTD/sodipodi-0.dtd"
   xmlns="http://www.w3.org/2000/svg"
   xmlns:svg="http://www.w3.org/2000/svg">
  <sodipodi:namedview
     id="namedview7"
     pagecolor="#ffffff"
     bordercolor="#666666"
     borderopacity="1.0"
     inkscape:pageshadow="2"
     inkscape:pageopacity="0.0"
     inkscape:pagecheckerboard="0"
     inkscape:document-units="mm"
     showgrid="false"
     inkscape:zoom="1"
     inkscape:cx="-28.5"
     inkscape:cy="-35.5"
     inkscape:window-width="2560"
     inkscape:window-height="1017"
     inkscape:window-x="-8"
     inkscape:window-y="-8"
     inkscape:window-maximized="1"
     inkscape:current-layer="layer1"
     fit-margin-top="0"
     fit-margin-left="0"
     fit-margin-right="0"
     fit-margin-bottom="0" />
  <defs
     id="defs2">
    <rect
       x="-934"
       y="401"
       width="605"
       height="78"
       id="rect51198" />
    <rect
       x="172.69534"
       y="615.22711"
       width="445.23016"
       height="133.56905"
       id="rect2783" />
  </defs>
  <g
     inkscape:label="Capa 1"
     inkscape:groupmode="layer"
     id="layer1"
     transform="translate(-47.150138,-113.5961)">
    <g
       aria-label="V  I  K  I  N  G  S"
       transform="matrix(0.15676791,0,0,0.15676791,184.80641,63.986096)"
       id="text2781"
       style="font-weight:bold;font-size:40px;line-height:1.25;font-family:'Microsoft Himalaya';-inkscape-font-specification:'Microsoft Himalaya Bold';white-space:pre;shape-inside:url(#rect2783);fill:#ffffff">
      <g
         id="g45031"
         transform="matrix(2.5368195,0,0,2.5368195,-1163.7873,-1250.1704)"
         style="fill:#ffffff;fill-opacity:0.842239">
        <g
           id="g45020"
           style="fill:#ffffff;fill-opacity:0.842239"
           transform="translate(0.83621254,-0.27873752)">
          <g
             id="g45010"
             style="fill:#ffffff;fill-opacity:0.842239">
            <path
               d="m 191.71875,626.14453 v 0.48828 q -0.56641,0.0977 -0.95703,0.3125 -0.39063,0.19531 -0.70313,0.50781 -0.29297,0.3125 -0.52734,0.76172 -0.23438,0.42969 -0.46875,0.9961 l -6.19141,15.09765 h -0.48828 l -6.64062,-15.29297 q -0.29297,-0.72265 -0.54688,-1.15234 -0.23437,-0.44922 -0.52734,-0.70312 -0.29297,-0.25391 -0.70313,-0.35157 -0.41015,-0.11718 -1.03515,-0.17578 v -0.48828 h 7.24609 v 0.48828 q -0.625,0.0586 -1.01562,0.17578 -0.39063,0.0977 -0.60547,0.25391 -0.19532,0.15625 -0.27344,0.35156 -0.0586,0.17578 -0.0586,0.41016 0,0.66406 0.60546,2.05078 l 4.51172,10.39062 4.17969,-10.27343 q 0.625,-1.52344 0.625,-2.08985 0,-0.41015 -0.42969,-0.76172 -0.42968,-0.37109 -1.46484,-0.50781 v -0.48828 z"
               id="path44555"
               style="fill:#ffffff;fill-opacity:0.842239" />
            <path
               d="m 209.87781,643.82031 v 0.48828 h -7.59766 v -0.48828 h 0.625 c 0.3125,0 0.58594,-0.0195 0.82031,-0.0586 0.2474,-0.0521 0.44922,-0.16274 0.60547,-0.33203 0.15625,-0.18229 0.27344,-0.44922 0.35156,-0.80078 0.0911,-0.36459 0.13672,-0.85287 0.13672,-1.46484 v -11.46485 c 0,-0.40365 -0.013,-0.73568 -0.0391,-0.99609 -0.013,-0.27344 -0.0345,-1.69908 -0.0866,-1.86835 l 2.76239,1.43863 c -0.0781,0.35156 -0.11719,0.82682 -0.11719,1.42578 v 11.46485 c 0,0.41667 0.006,0.75521 0.0195,1.01562 0.013,0.26042 0.0456,0.47526 0.0977,0.64453 0.0521,0.16927 0.12368,0.30599 0.21484,0.41016 0.10417,0.0911 0.23438,0.18229 0.39063,0.27344 0.36458,0.20833 0.76172,0.3125 1.19141,0.3125 z"
               id="path44557"
               sodipodi:nodetypes="ccccscccsscccssssccsc"
               style="fill:#ffffff;fill-opacity:0.842239" />
            <path
               d="m 229.16074,634.46484 6.54297,6.5039 c 0.54687,0.54688 1.04166,1.00261 1.48437,1.36719 0.44271,0.35156 0.85937,0.63802 1.25,0.85938 0.39063,0.20833 0.76823,0.36458 1.13281,0.46875 0.37761,0.0911 0.76172,0.14322 1.15235,0.15625 v 0.48828 h -8.4375 v -0.48828 c 0.55989,0 0.9375,-0.0977 1.13281,-0.29297 0.19531,-0.19531 0.29297,-0.40365 0.29297,-0.625 0,-0.0911 -0.007,-0.16927 -0.0195,-0.23438 -0.013,-0.0781 -0.0521,-0.16276 -0.11719,-0.2539 -0.0521,-0.0911 -0.14321,-0.20834 -0.27344,-0.35157 -0.13021,-0.14323 -0.30599,-0.32552 -0.52734,-0.54687 l -6.13281,-6.07422 v 5.72266 c 0,0.41667 0.006,0.75521 0.0195,1.01562 0.0261,0.26042 0.0586,0.47526 0.0977,0.64453 0.0521,0.16927 0.12368,0.30599 0.21485,0.41016 0.10417,0.0911 0.23437,0.18229 0.39062,0.27344 0.37761,0.20833 0.77474,0.3125 1.19141,0.3125 h 0.60547 v 0.48828 h -7.5586 v -0.48828 h 0.625 c 0.72917,0 1.26302,-0.21485 1.60157,-0.64454 0.20833,-0.28645 0.3125,-0.95702 0.3125,-2.01171 v -11.46485 c 0,-0.39063 -0.006,-0.71615 -0.0195,-0.97656 -0.013,-0.27344 -0.0456,-0.49479 -0.0977,-0.66406 -0.0521,-0.16927 -0.12368,-0.30599 -0.21484,-0.41016 -0.0911,-0.11719 -0.21485,-0.21484 -0.3711,-0.29297 -0.41667,-0.20833 -0.82031,-0.3125 -1.21094,-0.3125 h -0.625 v -0.48828 h 7.5586 v 0.48828 h -0.60547 c -0.32552,0 -0.67057,0.0716 -1.03516,0.21485 -0.35156,0.14323 -0.59244,0.38411 -0.72265,0.72265 -0.10417,0.28646 -0.15625,0.85938 -0.15625,1.71875 v 5.42969 c 0.013,-0.013 -0.1463,-0.49179 0.01,-0.63507 0.16927,-0.15625 0.40384,-0.27325 0.59915,-0.45554 0.20833,-0.18229 0.35138,-0.31232 0.53367,-0.49461 0.19531,-0.18229 0.34945,-0.35825 0.42758,-0.42336 0.95052,-0.87239 1.71646,-1.41204 2.3675,-2.03704 0.65104,-0.625 1.2764,-1.13492 1.66703,-1.56461 0.39062,-0.4427 0.70541,-0.77245 0.87468,-1.05891 0.16927,-0.29948 0.37586,-0.45977 0.37586,-0.65508 0,-0.20833 -0.0911,-0.38411 -0.27344,-0.52734 -0.18229,-0.15625 -0.49479,-0.23438 -0.9375,-0.23438 h -0.41016 v -0.48828 h 6.52344 v 0.48828 c -0.23437,0.013 -0.47526,0.039 -0.72266,0.0781 -0.23437,0.0261 -0.5013,0.10419 -0.80078,0.23437 -0.28646,0.13021 -0.61849,0.33203 -0.99609,0.60547 -0.37761,0.27344 -0.82683,0.65104 -1.34766,1.13281 -0.10417,0.0911 -0.37109,0.36459 -0.80078,0.82032 -0.42969,0.44271 -1.04818,1.06119 -1.85547,1.85546 z"
               id="path44559"
               style="fill:#ffffff;fill-opacity:0.842239"
               sodipodi:nodetypes="cccccccccssccsccsccccsccccscsscscssccccsccscccccsccscsccccccscccc" />
            <path
               d="m 257.43002,643.82031 v 0.48828 h -7.59766 v -0.48828 h 0.625 c 0.3125,0 0.58594,-0.0195 0.82032,-0.0586 0.24739,-0.0521 0.44922,-0.16274 0.60547,-0.33203 0.15625,-0.18229 0.27343,-0.44922 0.35156,-0.80078 0.0911,-0.36459 0.13672,-0.85287 0.13672,-1.46484 v -11.46485 c 0,-0.40365 -0.013,-3.34722 -0.0391,-3.60763 l 2.67584,2.18182 c -0.0781,0.35156 -0.11719,0.82682 -0.11719,1.42578 v 11.46485 c 0,0.41667 0.006,0.75521 0.0195,1.01562 0.013,0.26042 0.0456,0.47526 0.0977,0.64453 0.0521,0.16927 0.12368,0.30599 0.21484,0.41016 0.10417,0.0911 0.23437,0.18229 0.39062,0.27344 0.36459,0.20833 0.76172,0.3125 1.19141,0.3125 z"
               id="path44561"
               style="fill:#ffffff;fill-opacity:0.842239"
               sodipodi:nodetypes="ccccscccssccssscccsc" />
            <path
               d="m 268.87724,626.26171 h 4.80469 l 10.85937,13.32031 v -10.23437 q 0,-0.89844 -0.13672,-1.42578 -0.11719,-0.52735 -0.37109,-0.78125 -0.23438,-0.25391 -0.58594,-0.3125 -0.35156,-0.0781 -0.80078,-0.0781 h -0.625 v -0.48828 h 6.19141 v 0.48828 h -0.64454 q -0.46875,0 -0.82031,0.0781 -0.35156,0.0781 -0.58594,0.35156 -0.23437,0.27344 -0.35156,0.78125 -0.11719,0.50781 -0.11719,1.38672 v 14.96094 h -0.46875 l -11.69921,-14.29688 v 10.9375 q 0,0.91797 0.11718,1.44531 0.13672,0.50782 0.3711,0.76172 0.23437,0.25391 0.58593,0.3125 0.35157,0.0586 0.80079,0.0586 h 0.625 v 0.48828 h -6.17188 v -0.48828 h 0.625 q 0.46875,0 0.82031,-0.0781 0.35157,-0.0781 0.58594,-0.33203 0.25391,-0.27344 0.37109,-0.78125 0.11719,-0.50781 0.11719,-1.38672 v -12.34375 q -0.39062,-0.46875 -0.66406,-0.74219 -0.25391,-0.27343 -0.48828,-0.44922 -0.23438,-0.17578 -0.50781,-0.29296 -0.27344,-0.11719 -0.6836,-0.25391 -0.39062,-0.11719 -1.15234,-0.11719 z"
               id="path44563"
               style="fill:#ffffff;fill-opacity:0.842239" />
            <path
               d="m 314.69888,625.75387 0.46875,5.58593 h -0.46875 c -0.53385,-1.64062 -1.29557,-2.82551 -2.28516,-3.55468 -0.97656,-0.74219 -2.16797,-1.11329 -3.57422,-1.11329 -1.04167,0 -1.97265,0.20833 -2.79296,0.625 -0.82031,0.40365 -1.51693,0.97005 -2.08985,1.69922 -0.57291,0.71615 -1.00911,1.56901 -1.30859,2.5586 -0.29948,0.97656 -0.44922,2.03776 -0.44922,3.18359 0,1.67969 0.33203,3.22266 0.99609,4.62891 0.32552,0.70312 0.70313,1.30859 1.13282,1.8164 0.44271,0.50781 0.91797,0.93099 1.42578,1.26953 0.50781,0.32553 1.03516,0.56641 1.58203,0.72266 0.55989,0.15625 1.11979,0.23438 1.67969,0.23438 1.30208,0 2.52604,-0.32552 3.67187,-0.97657 v -3.55994 c 0,-0.44271 -0.0195,-0.80078 -0.0586,-1.07421 -0.0261,-0.28646 -0.0781,-0.50782 -0.15625,-0.66407 -0.0651,-0.16927 -0.14977,-0.29297 -0.25391,-0.37109 -0.10417,-0.0911 -0.22786,-0.17579 -0.37109,-0.25391 -0.28646,-0.14323 -0.78125,-0.21484 -1.48438,-0.21484 l -0.0348,-0.89107 4.9261,-0.0365 c -0.0521,0.33854 -0.008,2.95888 -0.008,3.50576 v 3.85291 c -0.50781,0.27344 -1.00911,0.51433 -1.5039,0.72266 -0.48177,0.19531 -0.97006,0.35156 -1.46485,0.46875 -1.01562,0.26041 -2.10286,0.39062 -3.26171,0.39062 -1.48438,0 -2.83204,-0.22786 -4.04297,-0.68359 -1.19792,-0.45573 -2.22657,-1.08724 -3.08594,-1.89453 -0.85937,-0.80729 -1.52344,-1.75781 -1.99219,-2.85156 -0.46875,-1.09375 -0.70312,-2.28516 -0.70312,-3.57422 0,-1.54948 0.3776,-3.04688 1.13281,-4.49219 0.87239,-1.69271 2.08984,-3.0013 3.65234,-3.92578 1.30209,-0.75521 2.83855,-1.13281 4.60938,-1.13281 0.35156,0 0.66406,0.013 0.9375,0.0391 0.27343,0.013 0.55338,0.0521 0.83984,0.11719 0.29948,0.0521 0.61849,0.1367 0.95703,0.2539 0.35157,0.10417 0.77474,0.2474 1.26953,0.42969 0.49479,0.19531 0.82683,0.28646 0.9961,0.27344 0.15625,0 0.29296,-0.0716 0.41015,-0.21485 0.11719,-0.15625 0.18881,-0.45572 0.21485,-0.89843 z"
               id="path44565"
               style="fill:#ffffff;fill-opacity:0.842239"
               sodipodi:nodetypes="ccccscccsccccscscccccccscccscsssccscccccccc" />
            <path
               d="m 338.9722,625.75391 v 6.13281 h -0.48828 q -0.33203,-2.48047 -1.6211,-3.78906 -1.28906,-1.3086 -3.28125,-1.3086 -0.68359,0 -1.25,0.23438 -0.5664,0.23437 -0.99609,0.625 -0.42969,0.37109 -0.66406,0.85937 -0.23438,0.48828 -0.23438,1.01563 0,0.48828 0.19532,0.9375 0.19531,0.42968 1.21093,1.36718 1.69922,1.07422 3.02735,1.77735 1.25,0.68359 3.3789,2.07031 0.91797,0.70313 1.40625,1.67969 0.48828,0.95703 0.48828,2.01172 0,0.99609 -0.41015,1.89453 -0.41016,0.89844 -1.15235,1.58203 -0.72265,0.66406 -1.75781,1.05469 -1.03515,0.41015 -2.26562,0.41015 -0.78125,0 -1.44532,-0.11718 -0.11718,-0.0195 -0.625,-0.17579 -0.48828,-0.13671 -1.05468,-0.29296 -0.56641,-0.15625 -1.05469,-0.29297 -0.48828,-0.13672 -0.56641,-0.13672 -0.33203,0 -0.52734,0.19531 -0.17578,0.19531 -0.27344,0.82031 h -0.48828 v -6.09375 h 0.48828 q 0.35156,1.875 0.91797,2.8711 0.27344,0.46875 0.72266,0.8789 0.46875,0.39063 1.03515,0.70313 0.58594,0.29297 1.25,0.46875 0.66407,0.15625 1.34766,0.15625 0.82031,0 1.46484,-0.23438 0.66407,-0.23437 1.11328,-0.625 0.46875,-0.41015 0.70313,-0.9375 0.25391,-0.52734 0.25391,-1.11328 0,-0.66406 -0.3711,-1.32812 -0.35156,-0.66407 -1.21094,-1.3086 -0.83984,-0.50781 -1.99218,-1.1914 -2.20703,-1.26953 -3.92578,-2.44141 -0.95704,-0.76172 -1.46485,-1.66016 -0.48828,-0.91796 -0.48828,-2.03125 0,-0.9375 0.39063,-1.77734 0.39062,-0.85937 1.07421,-1.50391 0.70313,-0.64453 1.66016,-1.01562 0.95703,-0.37109 2.07031,-0.37109 1.40625,0 2.98828,0.68359 0.3711,0.15625 0.625,0.25391 0.25391,0.0976 0.41016,0.0781 0.35156,0 0.56641,-0.19531 0.21484,-0.19531 0.33203,-0.82031 z"
               id="path44567"
               style="fill:#ffffff;fill-opacity:0.842239" />
          </g>
        </g>
      </g>
      <g
         aria-label="A L H A L L A"
         transform="matrix(2.3783692,0,0,2.3783692,1456.6384,-574.2182)"
         id="text51196"
         style="font-weight:normal;font-family:sans-serif;shape-inside:url(#rect51198);fill:#ffffff">
        <path
           d="m -926.57812,428.23895 -1.38672,3.65234 c -0.27344,0.71615 -0.48828,1.29557 -0.64453,1.73828 -0.14323,0.42969 -0.21485,0.76172 -0.21485,0.9961 0,0.22135 0.0586,0.39062 0.17578,0.50781 0.11719,0.11719 0.29948,0.20833 0.54688,0.27344 l 1.875,0.54687 0.0586,1.01563 c -1.88802,-0.0391 -3.42448,-0.0586 -4.60937,-0.0586 -1.23698,0 -2.64974,0.0195 -4.23828,0.0586 l -0.0977,-0.97657 2.08984,-0.625 c 0.49479,-0.14323 0.85938,-0.3776 1.09375,-0.70312 0.23438,-0.33854 0.4948,-0.84635 0.78125,-1.52344 l 9.72657,-23.6914 2.10937,-0.3125 8.41797,23.75 c 0.32552,0.91145 0.61849,1.52994 0.87891,1.85546 0.27343,0.3125 0.65755,0.54037 1.15234,0.6836 l 1.91406,0.5664 0.0586,0.97657 c -1.75781,-0.0391 -3.52865,-0.0586 -5.3125,-0.0586 -2.35677,0 -4.65495,0.0195 -6.89454,0.0586 l -0.0976,-0.97657 1.93359,-0.5664 c 0.26042,-0.0781 0.44922,-0.17578 0.56641,-0.29297 0.11719,-0.11719 0.17578,-0.29297 0.17578,-0.52734 0,-0.26042 -0.0651,-0.59896 -0.19531,-1.01563 -0.13021,-0.42969 -0.31902,-0.98958 -0.56641,-1.67969 l -5.07814,-14.88281 z m 4.21875,-11.21094 c -0.23438,0.67709 -0.48829,1.38021 -0.76172,2.10938 l 0.76172,-2.10938 v 0 l 0.68359,2.12891 c -0.24739,-0.74219 -0.47526,-1.45182 -0.68359,-2.12891 z"
           style="font-weight:bold;font-family:Constantia;-inkscape-font-specification:'Constantia Bold';fill:#ffffff"
           id="path90454"
           sodipodi:nodetypes="cccsscccsccccccccccccscccsscccccccccc" />
        <path
           d="m -810.33648,428.23896 -1.38672,3.65234 c -0.27344,0.71615 -0.48828,1.29557 -0.64453,1.73827 -0.14323,0.42969 -0.21485,0.76173 -0.21485,0.9961 0,0.22135 0.0586,0.39063 0.17578,0.50782 0.11719,0.11718 0.29948,0.20832 0.54688,0.27343 l 1.875,0.54688 0.0586,1.01562 c -1.88802,-0.0391 -3.42448,-0.0586 -4.60937,-0.0586 -1.23698,0 -2.64974,0.0195 -4.23828,0.0586 l -0.0977,-0.97656 2.08984,-0.625 c 0.49479,-0.14323 0.85938,-0.3776 1.09375,-0.70312 0.23438,-0.33855 0.4948,-0.84635 0.78125,-1.52344 l 9.72657,-23.6914 2.10937,-0.3125 8.41797,23.75 c 0.32552,0.91145 0.61849,1.52994 0.87891,1.85546 0.27343,0.3125 0.65755,0.54037 1.15234,0.6836 l 1.91406,0.5664 0.0586,0.97656 c -1.75781,-0.0391 -3.52865,-0.0586 -5.3125,-0.0586 -2.35677,0 -4.65495,0.0195 -6.89454,0.0586 l -0.0976,-0.97656 1.93359,-0.5664 c 0.26042,-0.0781 0.44922,-0.17578 0.56641,-0.29297 0.11719,-0.11719 0.17578,-0.29298 0.17578,-0.52734 0,-0.26042 -0.0651,-0.59896 -0.19531,-1.01563 -0.13021,-0.42969 -0.31902,-0.98958 -0.56641,-1.67969 l -5.07814,-14.88281 z m 4.21875,-11.21094 c -0.23438,0.67709 -0.48829,1.38021 -0.76172,2.10938 l 0.76172,-2.10938 v 0 l 0.68359,2.12891 c -0.24739,-0.74219 -0.47526,-1.45182 -0.68359,-2.12891 z"
           style="font-weight:bold;font-size:40px;line-height:1.25;font-family:Constantia;-inkscape-font-specification:'Constantia Bold';white-space:pre;shape-inside:url(#rect51198);fill:#ffffff"
           id="path90454-3"
           sodipodi:nodetypes="cccsscccsccccccccccccscccsscccccccccc" />
        <path
           d="m -703.33038,428.23895 -1.38672,3.65234 c -0.27344,0.71615 -0.48828,1.29557 -0.64453,1.73828 -0.14323,0.42969 -0.21485,0.76172 -0.21485,0.9961 0,0.22135 0.0586,0.39062 0.17578,0.50781 0.11719,0.11719 0.29948,0.20833 0.54688,0.27344 l 1.875,0.54687 0.0586,1.01563 c -1.88802,-0.0391 -3.42448,-0.0586 -4.60937,-0.0586 -1.23698,0 -2.64974,0.0195 -4.23828,0.0586 l -0.0977,-0.97657 2.08984,-0.625 c 0.49479,-0.14323 0.85938,-0.3776 1.09375,-0.70312 0.23438,-0.33854 0.4948,-0.84635 0.78125,-1.52344 l 9.72657,-23.6914 2.10937,-0.3125 8.41797,23.75 c 0.32552,0.91145 0.61849,1.52994 0.87891,1.85546 0.27343,0.3125 0.65755,0.54037 1.15234,0.6836 l 1.91406,0.5664 0.0586,0.97657 c -1.75781,-0.0391 -3.52865,-0.0586 -5.3125,-0.0586 -2.35677,0 -4.65495,0.0195 -6.89454,0.0586 l -0.0976,-0.97657 1.93359,-0.5664 c 0.26042,-0.0781 0.44922,-0.17577 0.56641,-0.29297 0.11719,-0.11719 0.17578,-0.29297 0.17578,-0.52734 0,-0.26042 -0.0651,-0.59896 -0.19531,-1.01563 -0.13021,-0.42969 -0.31902,-0.98958 -0.56641,-1.67969 l -5.07814,-14.88281 z m 4.21875,-11.21094 c -0.23438,0.6771 -0.48829,1.38021 -0.76172,2.10938 l 0.76172,-2.10938 v 0 l 0.68359,2.12892 c -0.24739,-0.74219 -0.47526,-1.45182 -0.68359,-2.12892 z"
           style="font-weight:bold;font-size:40px;line-height:1.25;font-family:Constantia;-inkscape-font-specification:'Constantia Bold';white-space:pre;shape-inside:url(#rect51198);fill:#ffffff"
           id="path90454-35"
           sodipodi:nodetypes="cccsscccsccccccccccccscccsscccccccccc" />
        <path
           d="m -886.04403,415.13348 v 15.44922 c 0,1.43229 0.013,0.32882 0.0391,1.73507 h 9.31854 l 2.67578,-2.18322 1.1914,-0.17579 0.1424,6.87394 -0.13672,0.13672 c -3.21614,-0.0391 -8.67317,-0.0586 -11.74609,-0.0586 h -4.84375 c -1.94011,0 -3.73698,0.0195 -5.39062,0.0586 l -0.0977,-0.97657 2.42187,-0.72265 c 0.32553,-0.0911 0.50131,-0.29297 0.52735,-0.60547 0.013,-0.52083 0.0195,-1.10026 0.0195,-1.73828 0.013,-0.65104 0.0195,-1.36719 0.0195,-2.14844 V 415.2116 c 0,-0.65104 -0.007,-1.24349 -0.0195,-1.77734 0,-0.53385 -0.007,-1.02213 -0.0195,-1.46484 -0.013,-0.33855 0.004,-4.00818 0.004,-4.00818 l 5.93327,3.91052 c -0.013,0.46875 -0.026,1.13933 -0.0391,2.01172 v 1.25 z"
           style="font-weight:bold;font-family:Constantia;-inkscape-font-specification:'Constantia Bold';fill:#ffffff"
           id="path90456"
           sodipodi:nodetypes="csccccccsscccccssccccccc" />
        <path
           d="m -769.80974,415.13348 v 15.44922 c 0,1.43229 0.013,0.32882 0.0391,1.73507 h 9.31854 l 2.67578,-2.18322 1.1914,-0.17579 0.1424,6.87394 -0.13672,0.13672 c -3.21614,-0.0391 -8.67317,-0.0586 -11.74609,-0.0586 h -4.84375 c -1.94011,0 -3.73698,0.0195 -5.39062,0.0586 l -0.0977,-0.97657 2.42187,-0.72265 c 0.32553,-0.0911 0.50131,-0.29297 0.52735,-0.60547 0.013,-0.52083 0.0195,-1.10026 0.0195,-1.73828 0.013,-0.65104 0.0195,-1.36719 0.0195,-2.14844 V 415.2116 c 0,-0.65104 -0.007,-1.24349 -0.0195,-1.77734 0,-0.53385 -0.007,-1.02213 -0.0195,-1.46484 -0.013,-0.33855 0.004,-4.00818 0.004,-4.00818 l 5.93327,3.91052 c -0.013,0.46875 -0.026,1.13933 -0.0391,2.01172 v 1.25 z"
           style="font-weight:bold;font-size:40px;line-height:1.25;font-family:Constantia;-inkscape-font-specification:'Constantia Bold';white-space:pre;shape-inside:url(#rect51198);fill:#ffffff"
           id="path90456-4"
           sodipodi:nodetypes="csccccccsscccccssccccccc" />
        <path
           d="m -735.54257,415.13348 v 15.44922 c 0,1.43229 0.013,0.32882 0.0391,1.73507 h 9.31854 l 2.67578,-2.18322 1.1914,-0.17579 0.1424,6.87394 -0.13672,0.13672 c -3.21614,-0.0391 -8.67317,-0.0586 -11.74609,-0.0586 h -4.84375 c -1.94011,0 -3.73698,0.0195 -5.39062,0.0586 l -0.0977,-0.97657 2.42187,-0.72265 c 0.32553,-0.0911 0.50131,-0.29297 0.52735,-0.60547 0.013,-0.52083 0.0195,-1.10026 0.0195,-1.73828 0.013,-0.65104 0.0195,-1.36719 0.0195,-2.14844 V 415.2116 c 0,-0.65104 -0.007,-1.24349 -0.0195,-1.77734 0,-0.53385 -0.007,-1.02213 -0.0195,-1.46484 -0.013,-0.33855 0.004,-4.00818 0.004,-4.00818 l 5.93327,3.91052 c -0.013,0.46875 -0.026,1.13933 -0.0391,2.01172 v 1.25 z"
           style="font-weight:bold;font-size:40px;line-height:1.25;font-family:Constantia;-inkscape-font-specification:'Constantia Bold';white-space:pre;shape-inside:url(#rect51198);fill:#ffffff"
           id="path90456-9"
           sodipodi:nodetypes="csccccccsscccccssccccccc" />
        <path
           d="m -851.49004,423.53192 v 7.24609 q 0,2.30469 0.0391,3.84766 0.0195,0.54687 0.50781,0.68359 l 2.26563,0.68359 0.0586,0.97657 q -2.42188,-0.0586 -5.72266,-0.0586 -3.3789,0 -6.09375,0.0586 l -0.0976,-0.97657 2.61718,-0.72265 q 0.50782,-0.15625 0.52735,-0.60547 0.0391,-1.58203 0.0391,-3.88672 V 415.2116 q 0,-1.95312 -0.0391,-3.24218 -0.0195,-0.50782 -0.46875,-0.64453 l -2.61719,-0.76172 -0.0586,-0.9961 q 2.71484,0.0781 6.01562,0.0781 3.39844,0 5.78125,-0.0781 l 0.11719,0.9961 -2.32422,0.66406 q -0.48828,0.13672 -0.50781,0.60547 -0.0391,1.40625 -0.0391,3.30078 v 6.32812 h 11.64062 v -6.32812 q 0,-1.89453 -0.0391,-3.30078 -0.0195,-0.46875 -0.50781,-0.60547 l -2.28516,-0.66406 -0.0586,-0.9961 q 2.48046,0.0781 5.85937,0.0781 3.30078,0 5.95703,-0.0781 l 0.0977,0.9961 -2.65625,0.76172 q -0.44922,0.13671 -0.48828,0.64453 -0.0391,1.28906 -0.0391,3.24218 v 15.56641 q 0,2.30469 0.0391,3.88672 0.0391,0.44922 0.54687,0.60547 l 2.53906,0.72265 0.0586,0.97657 q -2.79297,-0.0586 -6.17188,-0.0586 -3.30078,0 -5.64453,0.0586 l -0.0977,-0.97657 2.34375,-0.68359 q 0.48828,-0.13672 0.50781,-0.68359 0.0391,-1.54297 0.0391,-3.84766 v -7.24609 z"
           style="font-weight:bold;font-family:Constantia;-inkscape-font-specification:'Constantia Bold';fill:#ffffff"
           id="path90458" />
      </g>
    </g>
    <path
       style="fill:#ffffff;stroke-width:0.0586802"
       d="m 56.206755,139.69593 c -0.235285,-0.64656 -0.264686,-0.88722 -0.131596,-1.07723 0.0769,-0.10978 0.06582,-0.15201 -0.121299,-0.46264 -0.366893,-0.60906 -0.543206,-1.0054 -0.583976,-1.31274 -0.02198,-0.1656 -0.06652,-0.30109 -0.099,-0.30109 -0.03247,0 -0.120244,-0.066 -0.195025,-0.14671 -0.07477,-0.0807 -0.164824,-0.1467 -0.200102,-0.1467 -0.03531,0 -0.127744,0.0636 -0.20547,0.14132 -0.157548,0.15755 -0.225443,0.12118 -0.295608,-0.15836 -0.02305,-0.0918 -0.110722,-0.19919 -0.200647,-0.24569 -0.281264,-0.14545 -0.812804,-0.77911 -1.024187,-1.22095 -0.111409,-0.23289 -0.259311,-0.64788 -0.328665,-0.92221 -0.191504,-0.75752 -0.429367,-1.05183 -0.64251,-0.795 -0.114965,0.13852 -0.04556,0.28784 0.161316,0.34718 0.25488,0.0731 0.208629,0.17939 -0.08765,0.20145 -0.303803,0.0226 -0.428082,-0.0945 -0.428082,-0.4033 0,-0.31664 0.156802,-0.46525 0.490864,-0.46525 0.174494,0 0.308092,0.0409 0.419081,0.12816 l 0.162934,0.12816 0.10472,-0.12933 c 0.09503,-0.11735 0.107398,-0.11971 0.133688,-0.0255 0.01594,0.0571 0.0256,0.29508 0.02145,0.5288 -0.0084,0.47235 0.06131,0.61788 0.229378,0.47917 0.09299,-0.0768 0.09725,-0.0584 0.06019,0.2588 -0.03211,0.27482 -0.01748,0.38927 0.07493,0.58681 0.108927,0.23278 0.312495,0.50946 0.374845,0.50946 0.04503,0 -0.176129,-0.97327 -0.346659,-1.52569 -0.184555,-0.59786 -0.371485,-0.98043 -0.613999,-1.25665 -0.241252,-0.27477 -0.366775,-0.30585 -0.590838,-0.14631 -0.207099,0.14747 -0.678588,0.21126 -0.813988,0.11013 -0.06638,-0.0496 -0.06999,-0.0731 -0.0147,-0.0955 0.15618,-0.0634 0.06193,-0.13737 -0.17604,-0.13823 -0.137165,-4.4e-4 -0.288996,-0.0269 -0.33741,-0.0587 -0.07726,-0.0507 -0.07746,-0.0646 -0.0018,-0.11327 0.106509,-0.0685 0.09949,-0.0748 -0.262363,-0.23626 -0.279646,-0.12479 -0.287065,-0.13389 -0.158123,-0.19407 0.134559,-0.0628 0.133984,-0.0643 -0.107582,-0.28513 -0.261687,-0.2392 -0.2724,-0.37833 -0.0218,-0.28305 0.241987,0.092 0.304147,0.0674 0.375526,-0.14894 0.03727,-0.11297 0.0879,-0.20539 0.112494,-0.20539 0.02459,0 0.07479,0.066 0.111551,0.1467 0.07918,0.17378 0.260254,0.19192 0.406769,0.0408 0.09869,-0.10184 0.111149,-0.0974 0.320014,0.11461 0.233555,0.23705 0.782941,0.57808 0.926945,0.57541 0.04841,-6e-4 -0.0557,-0.0733 -0.231393,-0.16082 -1.025745,-0.5112 -1.560466,-1.76084 -1.2357,-2.88782 0.09919,-0.3442 0.143511,-0.38485 0.333292,-0.30566 0.204391,0.0853 0.0887,0.004 -0.326899,-0.23158 l -0.316435,-0.17885 0.02992,-0.53683 c 0.01641,-0.29526 0.01837,-0.47742 0.0041,-0.4048 -0.0141,0.0726 -0.05824,0.13203 -0.09806,0.13203 -0.125185,0 -0.58419,-0.32679 -0.834572,-0.59417 -0.459751,-0.49099 -0.669186,-1.02126 -0.669186,-1.69436 0,-0.39197 0.130785,-0.96267 0.235428,-1.02734 0.08634,-0.0534 0.592627,0.2643 0.547365,0.34343 -0.02133,0.0373 -0.01783,0.0489 0.0077,0.0258 0.05451,-0.0492 0.103256,-0.0253 0.903066,0.44342 0.334388,0.19596 0.618259,0.38384 0.630826,0.41751 0.01256,0.0336 0.003,0.17298 -0.02115,0.30957 l -0.04402,0.24835 -0.733265,-0.40833 c -0.403297,-0.22457 -0.76638,-0.4536 -0.806854,-0.50895 -0.06349,-0.0868 -0.07359,-0.0684 -0.07359,0.13465 0,0.55924 0.340924,1.23136 0.755401,1.48926 0.154011,0.0958 0.241957,0.19692 0.254921,0.29301 0.0109,0.0807 0.04112,-0.15037 0.06714,-0.51345 0.02601,-0.36308 0.05939,-0.66015 0.07409,-0.66015 0.01469,0 0.134749,0.0551 0.266772,0.12246 l 0.240037,0.12245 -0.04005,0.49369 -0.04005,0.49368 0.223116,-0.009 c 0.222054,-0.009 0.22219,-0.01 0.02862,-0.0334 -0.175466,-0.0216 -0.191517,-0.0393 -0.16406,-0.18132 0.01677,-0.0866 0.04811,-0.44281 0.06971,-0.79168 0.03413,-0.55074 0.05184,-0.62987 0.134718,-0.60069 0.06008,0.0211 0.04853,-0.005 -0.03122,-0.0699 -0.109685,-0.0896 -0.122418,-0.14506 -0.095,-0.41386 0.01742,-0.17072 0.04936,-0.30275 0.07105,-0.2934 0.02169,0.009 0.387886,0.21291 0.813834,0.45235 0.489033,0.27491 0.773882,0.46954 0.77291,0.52812 -5.93e-4,0.051 -0.04705,0.19205 -0.102688,0.3134 l -0.101153,0.22062 -0.381421,-0.23096 c -0.372931,-0.22583 -0.382269,-0.22812 -0.419579,-0.10326 -0.02097,0.0702 -0.04077,0.26302 -0.04402,0.42843 -0.0087,0.44926 -0.06524,0.66681 -0.174559,0.67212 -0.05321,0.002 -0.06497,0.0171 -0.02666,0.0327 0.0378,0.0154 0.208297,-0.0427 0.378915,-0.12915 l 0.310214,-0.1572 -0.217545,-0.11161 c -0.228098,-0.11702 -0.25501,-0.20024 -0.182309,-0.56374 l 0.03525,-0.1762 0.36085,0.22194 0.360849,0.22195 0.131277,-0.27313 c 0.100062,-0.20819 0.131454,-0.37903 0.132034,-0.71853 5.93e-4,-0.38128 -0.02536,-0.49765 -0.180632,-0.80838 -0.105401,-0.21093 -0.277472,-0.4402 -0.410763,-0.54732 -0.185372,-0.14896 -0.230669,-0.22466 -0.236126,-0.39456 -0.0036,-0.11562 -0.04165,0.14241 -0.08436,0.57341 -0.04266,0.431 -0.0864,0.79242 -0.09713,0.80315 -0.01073,0.0107 -0.160304,-0.0618 -0.332386,-0.16112 l -0.312868,-0.18064 0.03022,-0.71053 c 0.01659,-0.3908 0.01772,-0.63955 0.0024,-0.55278 -0.01819,0.10347 -0.07198,0.16634 -0.156257,0.18271 -0.124699,0.0242 -0.124456,0.0252 0.0082,0.0329 0.11641,0.007 0.132041,0.0319 0.105342,0.16936 -0.01724,0.0888 -0.04924,0.42328 -0.07106,0.7434 -0.02186,0.32011 -0.05611,0.64331 -0.07614,0.71822 l -0.03644,0.13621 -0.190574,-0.11589 c -0.214814,-0.13064 -0.2201,-0.17128 -0.13636,-1.048 0.02974,-0.31133 0.07658,-0.50912 0.128337,-0.5419 0.06674,-0.0422 0.0646,-0.0518 -0.01179,-0.0525 -0.05131,-4.5e-4 -0.254465,0.0796 -0.45142,0.17805 l -0.358101,0.17894 -0.238076,-0.12146 c -0.454229,-0.23173 -0.23519,-0.0673 0.315647,0.23702 l 0.553723,0.30587 -0.03383,0.29984 c -0.0186,0.1649 -0.04195,0.30947 -0.0519,0.32125 -0.03988,0.0473 -1.49116,-0.79737 -1.49116,-0.86785 0,-0.0988 0.279741,-0.44361 0.347542,-0.42841 0.03958,0.009 0.0567,-0.009 0.0381,-0.0386 -0.05107,-0.0827 0.303299,-0.35669 0.705761,-0.54568 0.221474,-0.104 0.504675,-0.18176 0.743041,-0.20402 0.371983,-0.0347 0.386067,-0.0312 0.411646,0.10408 l 0.02648,0.14003 0.008,-0.13469 c 0.0073,-0.12287 0.02731,-0.13116 0.228044,-0.0944 0.39233,0.0717 0.970891,0.38593 1.279724,0.69496 0.548693,0.54906 0.817307,1.36616 0.690824,2.10144 -0.07368,0.42834 -0.297505,0.94062 -0.386849,0.8854 -0.03614,-0.0223 -0.04396,-0.01 -0.01902,0.0307 0.06203,0.10036 0.12307,0.0415 0.260645,-0.25111 l 0.122554,-0.26073 0.239765,0.0942 c 0.229283,0.0901 0.238414,0.10336 0.208895,0.30399 -0.01701,0.11539 -0.04633,0.40785 -0.06523,0.6499 l -0.03437,0.44011 0.241749,0.10939 c 0.350659,0.15866 0.78255,0.62015 1.006921,1.07591 0.185402,0.37661 0.195244,0.42919 0.195244,1.04331 0,0.58294 -0.01594,0.68071 -0.161441,0.99138 -0.09751,0.20817 -0.126631,0.31576 -0.07354,0.2717 0.09285,-0.0771 0.320535,-0.74645 0.326525,-0.95995 0.0018,-0.0692 0.05025,0.0458 0.107327,0.25557 0.145728,0.53551 0.271796,0.75374 0.462347,0.80037 0.08817,0.0216 0.174458,0.0606 0.191759,0.0867 0.0173,0.0261 0.41856,-0.93519 0.891684,-2.1362 0.87539,-2.22216 2.512723,-6.36265 3.648082,-9.2253 0.34561,-0.87141 0.990022,-2.50163 1.432034,-3.62271 0.694924,-1.76256 0.891678,-2.20276 0.891678,-1.99494 0,0.0248 0.527759,1.07987 1.172794,2.3447 l 1.1728,2.29971 -1.120233,2.62845 c -0.616132,1.44565 -1.801279,4.22602 -2.633665,6.17861 -0.832386,1.95259 -2.035356,4.77804 -2.673269,6.27879 -0.637912,1.50074 -1.165944,2.73678 -1.173404,2.74674 -0.0075,0.01 -0.112067,-0.0231 -0.232459,-0.0734 -0.338618,-0.14149 -0.584154,-0.11765 -0.803098,0.078 -0.171407,0.15315 -0.181367,0.17948 -0.103618,0.27395 0.08033,0.0976 0.07263,0.10187 -0.11654,0.0644 -0.11141,-0.022 -0.262286,-0.0962 -0.335277,-0.16481 -0.119201,-0.11199 -0.158336,-0.1181 -0.384242,-0.06 -0.138339,0.0356 -0.336,0.0807 -0.439244,0.10025 -0.168634,0.032 -0.191594,0.0615 -0.225865,0.29 -0.05747,0.3833 0.09938,0.85503 0.360566,1.08435 0.26699,0.23442 0.485039,0.22619 0.603855,-0.0228 l 0.08226,-0.17239 0.131282,0.16465 0.131288,0.16465 0.124296,-0.1243 c 0.143743,-0.14374 0.160173,-0.3462 0.0413,-0.50879 -0.08061,-0.11024 -0.08663,-0.10891 -0.208527,0.046 -0.132616,0.1686 -0.540919,0.31643 -0.663373,0.24019 -0.03958,-0.0247 -0.131407,-0.0371 -0.204024,-0.0278 -0.09214,0.0119 -0.132035,-0.0133 -0.132035,-0.0834 0,-0.0552 -0.04622,-0.13583 -0.102688,-0.17912 -0.08023,-0.0615 -0.08621,-0.0896 -0.02737,-0.12852 0.04142,-0.0274 0.05842,-0.0939 0.03774,-0.14782 -0.02909,-0.0757 -0.0036,-0.098 0.111907,-0.098 0.162063,0 0.254127,-0.0863 0.15644,-0.1467 -0.0333,-0.0206 -0.04385,-0.0646 -0.02334,-0.0977 0.06123,-0.0991 0.553759,0.006 0.888894,0.18918 l 0.308075,0.16862 v -0.22483 c 0,-0.46245 0.459543,-0.72414 0.680217,-0.38735 0.08904,0.1359 0.08904,0.15751 0,0.2934 -0.05285,0.0807 -0.129842,0.14671 -0.171051,0.14671 -0.108251,0 -0.215768,-0.12374 -0.215768,-0.24831 0,-0.1315 0.159432,-0.20254 0.2504,-0.11157 0.04953,0.0495 0.041,0.0665 -0.0333,0.0665 -0.05487,0 -0.09975,0.0396 -0.09975,0.088 0,0.0484 0.02317,0.088 0.05149,0.088 0.02832,0 0.08437,-0.0396 0.124552,-0.088 0.0583,-0.0702 0.0583,-0.10581 0,-0.17604 -0.09302,-0.11207 -0.258334,-0.11296 -0.350517,-0.002 -0.05178,0.0624 -0.06018,0.23686 -0.03045,0.63306 l 0.041,0.54694 -0.211431,0.27698 c -0.116286,0.15234 -0.211431,0.32429 -0.211431,0.3821 0,0.21261 -0.116967,0.23732 -0.292497,0.0618 -0.123598,-0.1236 -0.224603,-0.16792 -0.382696,-0.16792 -0.262191,0 -0.252551,0.10405 0.02257,0.24396 0.525733,0.26735 0.559138,0.4419 0.235925,1.2328 -0.136295,0.33352 -0.264496,0.62603 -0.284884,0.65004 -0.02038,0.024 -0.135519,-0.22685 -0.255828,-0.55746 z m 0.311908,-0.60112 c 0,-0.31185 -0.0173,-0.38142 -0.09468,-0.38142 -0.07936,0 -0.08832,0.0451 -0.05534,0.27874 0.08404,0.59539 0.150017,0.64054 0.150017,0.10268 z m 0.262245,-2.14477 c -0.04936,-0.0798 -0.215111,-0.0655 -0.340373,0.0295 -0.101965,0.0773 -0.100466,0.0826 0.02933,0.10393 0.165121,0.0271 0.358889,-0.0559 0.311032,-0.13337 z m -0.48847,-1.16856 c 0.371822,-0.11491 0.743236,-0.32578 1.077091,-0.6115 0.134358,-0.11499 0.157774,-0.16279 0.0989,-0.20188 -0.138274,-0.0918 -0.373174,0.002 -0.634654,0.25206 -0.141035,0.13514 -0.256432,0.21282 -0.256432,0.17263 0,-0.20977 -0.341415,-0.0987 -0.494798,0.16093 -0.05688,0.0963 -0.113352,0.16519 -0.125469,0.15307 -0.01209,-0.0121 0.006,-0.12617 0.04035,-0.25345 0.04153,-0.1542 0.164237,-0.32933 0.367639,-0.52482 0.282982,-0.27199 0.300941,-0.30548 0.24604,-0.45877 -0.04462,-0.12463 -0.03804,-0.20297 0.02684,-0.31804 0.1207,-0.21407 0.232785,-0.23651 0.232785,-0.0466 0,0.11944 0.04337,0.17214 0.190711,0.23182 0.104891,0.0425 0.328498,0.0926 0.496913,0.11138 0.290614,0.0324 0.312631,0.0251 0.432454,-0.14316 0.176574,-0.24798 0.28825,-0.65614 0.28825,-1.05354 0,-0.45777 -0.02441,-0.50403 -0.251745,-0.47749 -0.214613,0.0251 -0.476673,-0.14283 -0.527736,-0.33809 -0.03745,-0.14308 -0.02044,-0.14579 0.162525,-0.0259 0.152559,0.1 0.382233,0.0663 0.382233,-0.056 0,-0.1022 -0.351185,-0.42907 -0.535675,-0.49858 -0.115871,-0.0437 -0.185224,-0.0364 -0.278734,0.0291 -0.143997,0.10086 -0.164936,0.30341 -0.03644,0.35271 0.131324,0.0504 0.106261,0.13858 -0.0394,0.13858 -0.180211,0 -0.342031,-0.16657 -0.342031,-0.35207 0,-0.20023 -0.08052,-0.26729 -0.762843,-0.6354 -0.306606,-0.16542 -0.67629,-0.36927 -0.821525,-0.45301 -0.14523,-0.0838 -0.211247,-0.10906 -0.146699,-0.0562 0.116499,0.0953 0.116279,0.0969 -0.02933,0.21811 -0.08069,0.0671 -0.311831,0.2 -0.513657,0.29522 -0.281276,0.13271 -0.459384,0.17524 -0.762837,0.18218 -0.364002,0.008 -0.394765,-4.5e-4 -0.381896,-0.10832 0.07037,-0.59005 0.166193,-2.24707 0.14677,-2.53793 -0.01398,-0.20906 -5.92e-4,-0.36675 0.03111,-0.36675 0.07027,0 1.417571,0.75182 1.54877,0.86423 0.08902,0.0763 0.08983,0.10643 0.0092,0.3432 -0.04865,0.14278 -0.115515,0.25958 -0.148601,0.25958 -0.03306,0 -0.222048,-0.0973 -0.419917,-0.21614 -0.197868,-0.11889 -0.425771,-0.25405 -0.506458,-0.30037 l -0.1467,-0.0842 0.135673,0.11265 c 0.13165,0.10932 0.134257,0.12992 0.08802,0.69602 l -0.04764,0.58336 -0.176047,0.0375 c -0.139364,0.0297 -0.148127,0.0389 -0.04207,0.0444 0.07369,0.004 0.265592,-0.0597 0.426464,-0.14126 0.230285,-0.1167 0.317218,-0.13498 0.408808,-0.086 0.06398,0.0342 0.116327,0.0507 0.116327,0.0364 0,-0.0142 -0.142161,-0.10603 -0.315908,-0.20409 l -0.315914,-0.17829 0.03034,-0.28208 c 0.01665,-0.15515 0.03466,-0.28775 0.03999,-0.29466 0.0053,-0.007 0.178949,0.0892 0.385859,0.2137 l 0.376208,0.22627 0.116706,-0.24304 c 0.08745,-0.18212 0.11727,-0.36807 0.118958,-0.74182 0.0018,-0.42919 -0.01943,-0.53972 -0.153217,-0.79219 -0.08552,-0.16137 -0.263388,-0.39778 -0.395268,-0.52536 -0.207307,-0.20054 -0.240802,-0.26811 -0.247242,-0.49878 -0.0041,-0.14675 -0.04497,0.11514 -0.09085,0.58198 -0.04586,0.46684 -0.09167,0.85707 -0.10177,0.86718 -0.01013,0.0101 -0.166483,-0.0667 -0.347512,-0.17068 -0.260467,-0.1496 -0.324037,-0.21423 -0.304656,-0.30971 0.01345,-0.0664 0.03614,-0.39793 0.05042,-0.73681 0.01428,-0.33888 0.01398,-0.53033 -5.93e-4,-0.42543 -0.02305,0.16566 -0.04906,0.19071 -0.198212,0.19071 -0.214316,0 -0.709582,0.18521 -0.967092,0.36166 l -0.194711,0.13342 0.34772,0.19596 c 0.36383,0.20503 0.405258,0.29119 0.310344,0.64545 l -0.03579,0.13354 -0.33017,-0.18502 c -0.69202,-0.38779 -0.854848,-0.47134 -0.74976,-0.38474 0.09605,0.0791 0.1003,0.1144 0.03691,0.30645 -0.04296,0.1302 -0.06111,0.39855 -0.04533,0.67078 0.02115,0.36559 0.06073,0.5152 0.203598,0.76981 0.102539,0.18275 0.297777,0.40789 0.462897,0.53379 0.316524,0.24136 0.37526,0.22012 0.376765,-0.13621 4.44e-4,-0.11652 0.01718,-0.33078 0.03715,-0.47613 l 0.0362,-0.26428 0.260348,0.14552 c 0.225865,0.12624 0.256415,0.16598 0.230617,0.30009 -0.01635,0.085 -0.06181,0.57708 -0.101011,1.09347 -0.0661,0.87076 -0.06359,0.95506 0.0346,1.16183 0.09512,0.20026 0.122981,0.21918 0.273876,0.18604 0.121505,-0.0267 0.167982,-0.0145 0.167982,0.044 0,0.0445 -0.03016,0.11112 -0.06704,0.14799 -0.07111,0.0711 0.04313,0.70612 0.328084,1.82355 0.187097,0.73371 0.499337,1.19088 0.648495,0.94953 0.01997,-0.0323 0.08505,-0.0587 0.144673,-0.0587 0.07727,0 0.100104,0.0318 0.07951,0.1105 -0.07811,0.29869 0.647257,0.3989 1.339337,0.185 z m -0.0458,-0.20709 c -0.02032,-0.053 -0.0088,-0.12443 0.0256,-0.15883 0.08941,-0.0894 0.258808,-0.008 0.235451,0.11358 -0.02601,0.13507 -0.21405,0.16767 -0.261024,0.0453 z m -0.542229,-0.32202 c -0.08822,-0.29446 -0.215821,-0.36825 -0.490828,-0.28385 -0.28678,0.088 -0.476768,0.0261 -0.781465,-0.25478 -0.203758,-0.18783 -0.286105,-0.32298 -0.37795,-0.62034 -0.115877,-0.37517 -0.151226,-0.79827 -0.08181,-0.97917 0.07089,-0.18475 0.111131,-0.0848 0.113578,0.2822 0.0018,0.2968 0.03182,0.41716 0.144016,0.5809 0.222143,0.32421 0.435328,0.42288 0.909731,0.42111 0.47758,-0.002 0.761753,-0.12493 1.18993,-0.51566 0.163686,-0.14938 0.252734,-0.20214 0.227831,-0.13498 -0.131584,0.35476 -0.164498,0.61535 -0.0943,0.74652 0.06194,0.11574 0.05724,0.14473 -0.03182,0.19693 -0.252451,0.14798 -0.464853,0.36619 -0.557178,0.5724 l -0.09968,0.22264 z m -0.464971,0.10451 c -0.175199,-0.1752 0.01914,-0.44946 0.236139,-0.3333 0.172982,0.0926 0.095,0.40372 -0.101177,0.40372 -0.03549,0 -0.09624,-0.0317 -0.134962,-0.0704 z m -0.363818,-1.14463 c -0.17447,-0.0638 -0.350984,-0.27445 -0.385901,-0.46058 -0.04473,-0.2384 0.08542,-0.45097 0.354196,-0.57851 0.276488,-0.1312 0.471963,-0.11628 0.797422,0.0608 0.19135,0.10415 0.340994,0.14539 0.462713,0.12752 0.09894,-0.0145 0.179898,-0.007 0.179898,0.0174 0,0.1 -0.629262,0.72246 -0.804253,0.79558 -0.19243,0.0804 -0.44434,0.0961 -0.604075,0.0377 z m 0.66249,-0.43953 c 0.200611,-0.10465 0.224993,-0.13355 0.129694,-0.15375 -0.06455,-0.0137 -0.169445,-0.0613 -0.233111,-0.10584 -0.151877,-0.10623 -0.326134,-0.10252 -0.487338,0.0104 -0.154591,0.10829 -0.161808,0.16228 -0.03822,0.28588 0.127556,0.12756 0.337641,0.11531 0.62896,-0.0367 z m -0.579847,-0.0107 c -0.04752,-0.12377 0.01914,-0.21253 0.159622,-0.21253 0.08865,0 0.113317,0.0327 0.09923,0.13143 -0.02186,0.15339 -0.208657,0.21191 -0.258849,0.0811 z m -0.57702,0.15422 c -0.192743,-0.29461 -0.234468,-0.4956 -0.153691,-0.74034 0.08825,-0.26741 0.514991,-0.65565 0.821644,-0.74753 0.215927,-0.0647 0.276707,-0.0591 0.533026,0.0492 0.272418,0.11509 0.285909,0.11586 0.231002,0.0133 -0.179513,-0.33542 -0.573122,-0.37303 -1.137919,-0.10873 -0.294625,0.13787 -0.436703,0.17344 -0.583112,0.14597 -0.215845,-0.0405 -0.441632,-0.25325 -0.597479,-0.56297 l -0.10334,-0.20538 0.267411,0.24574 c 0.375627,0.34518 0.578164,0.37157 1.081832,0.14091 0.268537,-0.12297 0.475838,-0.17884 0.633783,-0.1708 0.129096,0.007 0.285518,-0.0109 0.347601,-0.0388 0.09023,-0.0405 0.105615,-0.0318 0.07668,0.0436 -0.02198,0.0572 0.03111,0.17904 0.135015,0.30977 0.246122,0.30971 0.295858,0.69289 0.124125,0.95631 -0.04059,0.0622 -0.117287,0.0411 -0.372013,-0.10269 -0.220217,-0.12428 -0.399824,-0.1811 -0.572446,-0.1811 -0.213967,0 -0.285589,0.0341 -0.479369,0.22782 -0.254476,0.25447 -0.293499,0.47252 -0.138291,0.77266 0.125991,0.24364 0.05718,0.21542 -0.114461,-0.0469 z m 2.870929,0.0931 c -0.200404,-0.11057 -0.428472,-0.34875 -0.500539,-0.52273 l -0.06896,-0.1665 -0.139986,0.16637 c -0.07699,0.0915 -0.193111,0.18026 -0.258044,0.19723 -0.06493,0.017 -0.117719,0.0267 -0.117311,0.0217 4.45e-4,-0.005 0.07963,-0.16473 0.176041,-0.35486 0.09641,-0.19013 0.175039,-0.40137 0.174725,-0.46944 -0.0012,-0.22245 -0.269319,-0.70597 -0.514191,-0.92671 -0.235155,-0.21198 -0.547822,-0.34034 -0.830609,-0.34099 -0.08915,-1.8e-4 -0.202033,0.071 -0.301758,0.19038 -0.152494,0.18253 -0.164143,0.18636 -0.271417,0.0894 -0.08631,-0.078 -0.178854,-0.0942 -0.402408,-0.0706 -0.159675,0.0169 -0.369536,0.007 -0.466357,-0.0213 -0.162431,-0.0479 -0.14462,-0.0575 0.230432,-0.12363 0.223554,-0.0395 0.553634,-0.14928 0.733502,-0.24409 0.179868,-0.0948 0.411859,-0.17244 0.515542,-0.17252 0.3409,-2.2e-4 0.794726,0.21512 1.080333,0.51263 0.341895,0.35613 0.475417,0.58747 0.642783,1.1137 0.168201,0.52883 0.332723,0.752 0.512348,0.69499 0.154674,-0.0491 0.169754,-0.23715 0.02595,-0.32335 -0.09668,-0.0579 -0.09602,-0.0667 0.0112,-0.14962 0.150799,-0.11659 0.169706,-0.11341 0.380373,0.0639 0.24611,0.20709 0.249618,0.4922 0.009,0.7328 -0.182125,0.18213 -0.409186,0.21988 -0.620659,0.10321 z m 0.06968,-0.49771 c -0.08062,-0.0806 -0.03881,-0.20513 0.06234,-0.18565 0.05647,0.0108 0.102694,0.0568 0.102694,0.1021 0,0.0926 -0.10353,0.14506 -0.165038,0.0836 z m -0.118596,-1.39547 c -0.03834,-0.0999 0.105863,-0.2358 0.193039,-0.18193 0.03371,0.0208 0.06125,0.0891 0.06125,0.15176 0,0.13447 -0.204942,0.15879 -0.254292,0.0302 z m -2.914444,-0.151 c 0,-0.0782 0.03911,-0.11736 0.117359,-0.11736 0.07824,0 0.117364,0.0391 0.117364,0.11736 0,0.0782 -0.03911,0.11737 -0.117364,0.11737 -0.07824,0 -0.117359,-0.0391 -0.117359,-0.11737 z m -1.672385,-2.51595 c -0.753837,-0.42866 -0.810937,-0.50017 -0.678197,-0.8493 0.07097,-0.18663 0.0069,-0.20945 0.927584,0.3301 l 0.601473,0.35247 v 0.2851 c 0,0.18977 -0.02453,0.28458 -0.07335,0.28357 -0.04035,-5.9e-4 -0.390227,-0.18171 -0.777514,-0.40194 z m 0.597835,-0.37592 c -0.217373,-0.12443 -0.222795,-0.13552 -0.19218,-0.39316 0.0173,-0.14582 0.04823,-0.46737 0.06871,-0.71457 l 0.03721,-0.44944 0.204978,-0.0384 c 0.112743,-0.0212 0.218405,-0.025 0.234806,-0.009 0.01641,0.0164 -0.0061,0.41288 -0.05001,0.88106 l -0.07982,0.85125 z m 4.471545,6.44982 c 0.05036,-0.0607 0.04687,-0.0966 -0.01434,-0.14743 -0.06186,-0.0513 -0.09783,-0.0469 -0.152476,0.019 -0.07093,0.0855 -0.04011,0.20867 0.0522,0.20867 0.02643,0 0.07799,-0.0361 0.11462,-0.0802 z m 0.519932,-0.66791 c 0.03205,-0.0964 -0.151777,-0.16515 -0.230634,-0.0863 -0.03377,0.0338 -0.04272,0.0915 -0.01991,0.12841 0.05185,0.0839 0.217901,0.056 0.250561,-0.0421 z m 0.396074,-0.77755 c 0,-0.0475 -0.04622,-0.0953 -0.102694,-0.10619 -0.07205,-0.0139 -0.102687,0.0178 -0.102687,0.10619 0,0.0884 0.03063,0.12007 0.102687,0.10619 0.05647,-0.0108 0.102694,-0.0587 0.102694,-0.10619 z m 0.136336,-1.01709 c 0.0128,-0.066 -0.02068,-0.0978 -0.102693,-0.0978 -0.06692,0 -0.12166,0.0352 -0.12166,0.0782 0,0.17972 0.190077,0.19631 0.224353,0.0196 z m -0.234722,-0.93889 c 0.0128,-0.066 -0.02068,-0.0978 -0.102694,-0.0978 -0.06691,0 -0.121659,0.0352 -0.121659,0.0782 0,0.17972 0.190076,0.19631 0.224353,0.0196 z m -0.700861,-0.6638 c -0.05113,-0.0616 -0.08653,-0.0649 -0.148145,-0.0138 -0.06161,0.0511 -0.0649,0.0865 -0.01375,0.14815 0.05113,0.0616 0.08654,0.0649 0.148145,0.0137 0.06162,-0.0511 0.06491,-0.0865 0.01381,-0.14815 z m -4.99733,-0.4748 c -0.01351,-0.0892 -0.02488,-0.0302 -0.0253,0.13123 -4.45e-4,0.16137 0.01061,0.23435 0.02453,0.16218 0.01392,-0.0722 0.01428,-0.2042 5.92e-4,-0.29341 z m 4.226897,0.23395 c 0.03466,-0.10413 -0.162608,-0.16636 -0.222119,-0.0701 -0.0269,0.0435 -0.03496,0.10162 -0.01795,0.12916 0.04343,0.0703 0.210702,0.0291 0.240066,-0.0591 z m -1.687073,-0.8635 c 0,-0.015 -0.05942,-0.056 -0.132035,-0.0913 -0.126785,-0.0614 -0.127508,-0.0604 -0.01813,0.0273 0.119723,0.0959 0.15016,0.10888 0.15016,0.064 z m -1.46701,-0.93888 c 0,-0.015 -0.05941,-0.056 -0.132029,-0.0913 -0.126785,-0.0614 -0.127508,-0.0604 -0.01813,0.0273 0.119723,0.0959 0.150154,0.10888 0.150154,0.064 z m -1.995131,-1.79392 -0.146699,-0.11686 0.136579,-0.11498 c 0.07512,-0.0632 0.20361,-0.1638 0.285536,-0.22348 l 0.148957,-0.10851 -0.354338,0.0256 c -0.352294,0.0255 -0.354486,0.0247 -0.379437,-0.14247 -0.01381,-0.0924 -0.02903,-0.008 -0.03389,0.18713 -0.0087,0.35199 -0.0068,0.35638 0.211259,0.48276 0.27429,0.15899 0.323089,0.16297 0.132028,0.0108 z m 1.85806,-0.92717 c 5.9e-5,-0.0431 -0.05944,-0.11745 -0.132278,-0.16518 -0.121541,-0.0796 -0.152097,-0.0737 -0.371639,0.0715 -0.131566,0.0871 -0.239231,0.1614 -0.239249,0.16518 -2.4e-5,0.004 0.167147,0.007 0.371485,0.007 0.270806,0 0.371568,-0.0213 0.371681,-0.0784 z m -1.388615,-1.62126 c 0,-0.015 -0.05941,-0.056 -0.132029,-0.0912 -0.126785,-0.0614 -0.127508,-0.0604 -0.01813,0.0272 0.119729,0.0959 0.15016,0.10889 0.150159,0.064 z m -0.154669,8.15489 c -0.02032,-0.053 -0.0088,-0.12444 0.0256,-0.15883 0.0894,-0.0894 0.258802,-0.008 0.235451,0.11358 -0.02601,0.13507 -0.21405,0.16767 -0.261024,0.0453 z m 2.028217,-7.90756 c -0.0024,-0.008 -0.0089,-0.29613 -0.01463,-0.64014 -0.01037,-0.61964 -0.01298,-0.63048 -0.282728,-1.16013 l -0.272275,-0.53464 0.6068,-1.92025 c 0.333742,-1.05613 0.637995,-2.10518 0.676123,-2.33122 0.08591,-0.50938 0.03822,-1.25083 -0.120824,-1.87825 -0.06545,-0.2582 -0.259199,-0.75186 -0.430552,-1.09704 l -0.311559,-0.62759 0.17857,0.0995 c 0.342049,0.19053 1.298269,1.19682 1.522001,1.6017 0.435434,0.78801 0.631069,1.70387 0.521555,2.44174 -0.08248,0.55566 -1.891495,6.06102 -1.991605,6.06102 -0.04213,0 -0.07852,-0.007 -0.08084,-0.0146 z m -4.866244,-1.67206 c 0,-0.12387 0.633907,-2.00016 1.779422,-5.26688 l 0.596727,-1.70173 -0.0012,-0.58681 c -0.0018,-0.63427 -0.08108,-0.95461 -0.391411,-1.57513 l -0.171466,-0.34285 0.185277,0.10813 c 0.270362,0.15779 0.900536,0.84459 0.990509,1.07953 0.0426,0.11121 0.120557,0.29462 0.173249,0.40758 0.06951,0.14899 0.09582,0.37456 0.09582,0.82153 v 0.61614 l -0.635335,1.93645 c -0.349432,1.06505 -0.718885,2.19622 -0.82101,2.51371 l -0.18568,0.57725 -0.320044,0.15625 c -0.415876,0.20303 -0.830964,0.59689 -1.088669,1.033 -0.139939,0.2368 -0.206021,0.3086 -0.206021,0.22383 z m -1.179193,-2.84146 -1.030337,-2.53305 0.14968,-0.39953 c 0.08647,-0.2308 0.166619,-0.36915 0.189786,-0.3276 0.129795,0.23274 1.48645,3.54664 1.613205,3.94057 0.114455,0.35569 0.160132,0.64544 0.183358,1.16318 0.01772,0.3954 0.0083,0.68949 -0.02222,0.68949 -0.02921,0 -0.516792,-1.13987 -1.083479,-2.53306 z m 4.347929,1.49954 c -0.209784,-0.0748 -0.440832,-0.13687 -0.51345,-0.13801 -0.154722,-0.002 -0.160386,-0.0419 -0.04853,-0.3383 0.04592,-0.12168 0.369305,-1.11905 0.718589,-2.21637 l 0.635051,-1.99513 -4.45e-4,-0.64548 c -5.92e-4,-0.77412 -0.10203,-1.19658 -0.461528,-1.92178 -0.139998,-0.2824 -0.241377,-0.51345 -0.22529,-0.51345 0.01606,0 0.210459,0.14826 0.431951,0.32946 0.404168,0.33066 0.851808,0.86732 1.045499,1.25339 0.259205,0.51667 0.311025,0.8046 0.278669,1.54835 l -0.03099,0.71236 -0.669262,2.02088 c -0.368102,1.11148 -0.693922,2.02518 -0.724057,2.03044 -0.03016,0.005 -0.226421,-0.0516 -0.436205,-0.12636 z m -3.127586,-10e-4 c -0.07674,-0.0767 -0.04165,-0.31848 0.05143,-0.35419 0.0509,-0.0196 0.136283,0.008 0.189716,0.0616 0.07473,0.0747 0.08239,0.12058 0.03318,0.19873 -0.06996,0.1111 -0.209363,0.15879 -0.274308,0.0938 z m -0.208925,-0.92118 c -0.150622,-0.18148 0.112837,-0.41278 0.279889,-0.24573 0.06968,0.0697 0.07614,0.11532 0.02731,0.19287 -0.08385,0.13315 -0.220976,0.15675 -0.307192,0.0529 z m 0.578537,-0.29212 c 0,-0.0422 -0.431239,-1.11804 -0.958311,-2.39069 l -0.958312,-2.3139 0.119408,-0.36729 c 0.06568,-0.202 0.133836,-0.36667 0.151463,-0.36593 0.03543,0.002 1.460777,3.42026 1.654154,3.96753 0.06688,0.18927 0.135371,0.49317 0.152204,0.67535 0.03514,0.38026 -0.02435,0.87172 -0.10552,0.87172 -0.03028,0 -0.0551,-0.0345 -0.0551,-0.0768 z m -0.917665,-0.53936 c -0.0554,-0.14444 0.02429,-0.26406 0.176046,-0.26406 0.163414,0 0.247106,0.15286 0.148643,0.2715 -0.08893,0.10715 -0.282414,0.10272 -0.324689,-0.007 z m 1.209073,-0.23712 c -0.05623,-0.0678 -0.06197,-0.1228 -0.01973,-0.18973 0.08405,-0.13325 0.15602,-0.14494 0.288179,-0.0468 0.09211,0.0684 0.102059,0.10649 0.05001,0.1915 -0.08723,0.14249 -0.221776,0.16152 -0.318444,0.045 z m 0.34199,-0.62141 c -0.01588,-0.14102 -0.404458,-1.16606 -0.863433,-2.27788 -0.458981,-1.11182 -0.861762,-2.16806 -0.895067,-2.34721 -0.0333,-0.17915 -0.04515,-0.45821 -0.02631,-0.62014 0.03774,-0.32424 0.200635,-0.84985 0.263382,-0.84985 0.02192,0 0.512402,1.0587 1.089967,2.35267 l 1.050109,2.35267 -0.253641,0.74272 c -0.139506,0.40849 -0.272204,0.77887 -0.29488,0.82306 -0.02417,0.0471 -0.05321,-0.0256 -0.07016,-0.17604 z m -1.829418,0.0942 c -0.07183,-0.0718 -0.08006,-0.12208 -0.03407,-0.208 0.07357,-0.13745 0.191374,-0.14557 0.295306,-0.0203 0.05451,0.0657 0.05971,0.12055 0.01766,0.18722 -0.08603,0.13638 -0.171081,0.14893 -0.278876,0.0411 z m 1.277502,-0.28783 c -0.05842,-0.15225 0.02346,-0.27809 0.16765,-0.25762 0.09698,0.0138 0.13229,0.0579 0.13229,0.16549 0,0.10754 -0.03531,0.15171 -0.13229,0.16549 -0.07935,0.0113 -0.146444,-0.0181 -0.16765,-0.0734 z m -1.624256,-0.48086 c -0.07491,-0.0749 -0.04355,-0.30212 0.04645,-0.33666 0.156819,-0.0602 0.271571,0.0262 0.252563,0.19009 -0.01191,0.10266 -0.05771,0.15958 -0.137622,0.17102 -0.06588,0.009 -0.138493,-0.002 -0.16137,-0.0245 z m 1.338851,-0.29302 c -0.05208,-0.0521 -0.08536,-0.12277 -0.07393,-0.15707 0.03448,-0.10341 0.197051,-0.17979 0.299223,-0.14059 0.131709,0.0505 0.120908,0.25778 -0.0173,0.33174 -0.08591,0.046 -0.136164,0.0378 -0.208,-0.0341 z m -1.605628,-0.42604 c -0.04319,-0.0274 -0.06957,-0.11278 -0.05866,-0.18982 0.01481,-0.10476 0.05659,-0.14006 0.165701,-0.14006 0.16592,0 0.228608,0.16033 0.115824,0.29622 -0.08114,0.0978 -0.113886,0.10272 -0.222843,0.0336 z m 1.296101,-0.3394 c -0.102806,-0.0415 -0.09174,-0.29361 0.01464,-0.33444 0.141811,-0.0544 0.264063,0.0233 0.264063,0.16792 0,0.0738 -0.04177,0.15017 -0.09282,0.16976 -0.05107,0.0196 -0.09726,0.0335 -0.102688,0.031 -0.0053,-0.002 -0.0429,-0.018 -0.08322,-0.0343 z m -1.634921,-0.45581 c -0.05842,-0.15225 0.02346,-0.27809 0.167651,-0.25762 0.09698,0.0138 0.132289,0.0579 0.132289,0.16549 0,0.10754 -0.03531,0.15171 -0.132289,0.16548 -0.07936,0.0113 -0.146445,-0.0181 -0.167651,-0.0734 z m 1.309764,-0.24614 c -0.07072,-0.0707 -0.04598,-0.23874 0.04645,-0.31543 0.07035,-0.0584 0.10626,-0.0579 0.178872,0.002 0.124688,0.10347 0.08438,0.3163 -0.06393,0.33753 -0.06588,0.009 -0.138493,-0.002 -0.16137,-0.0245 z m -0.35208,-0.82152 c -0.07492,-0.0749 -0.04361,-0.30212 0.04645,-0.33666 0.15682,-0.0602 0.271571,0.0262 0.252569,0.19009 -0.01191,0.10266 -0.05771,0.15958 -0.137622,0.17102 -0.06588,0.009 -0.138493,-0.002 -0.16137,-0.0245 z m -0.273982,-0.8114 c -0.1028,-0.12387 -0.05054,-0.29335 0.09698,-0.31445 0.178843,-0.0256 0.286738,0.18125 0.160433,0.30755 -0.114224,0.11423 -0.167158,0.11565 -0.257415,0.007 z"
       id="path872" />
  </g>
</svg>
